<svg width="148" height="45" viewBox="0 0 148 45" fill="none" xmlns="http://www.w3.org/2000/svg">
<path d="M147.273 35.441V36.4205H141.923C141.948 36.2447 141.973 36.0187 141.998 35.7424C142.049 35.441 142.074 35.2024 142.074 35.0266L142.149 33.5573C141.596 34.6373 140.881 35.4159 140.002 35.8931C139.148 36.3703 138.118 36.6089 136.912 36.6089C135.33 36.6089 134.124 36.2573 133.296 35.5541C132.492 34.8257 132.09 33.7583 132.09 32.3518C132.09 30.4179 132.894 28.9988 134.501 28.0946C136.134 27.1654 138.683 26.7007 142.149 26.7007V24.5156C142.149 23.3352 141.873 22.4938 141.32 21.9915C140.768 21.4892 139.876 21.238 138.645 21.238C136.737 21.238 135.782 21.7654 135.782 22.8203C135.782 23.0212 135.832 23.2598 135.933 23.5361C136.058 23.7873 136.121 24.0259 136.121 24.2519C136.121 24.6789 135.983 25.0054 135.707 25.2314C135.43 25.4324 135.079 25.5328 134.652 25.5328C134.124 25.5328 133.71 25.3696 133.409 25.0431C133.132 24.7166 132.994 24.2896 132.994 23.7622C132.994 22.7073 133.547 21.8534 134.652 21.2003C135.757 20.5473 137.239 20.2208 139.097 20.2208C143.292 20.2208 145.389 21.9915 145.389 25.5328V34.8006C145.389 35.2778 145.552 35.5164 145.879 35.5164L147.273 35.441ZM138.043 35.2527C139.148 35.2527 140.089 34.8006 140.868 33.8964C141.647 32.9671 142.074 31.7741 142.149 30.3174V27.7179C139.788 27.7179 138.093 28.0695 137.063 28.7728C136.033 29.4509 135.518 30.5434 135.518 32.0504C135.518 33.1053 135.732 33.909 136.159 34.4615C136.611 34.9889 137.239 35.2527 138.043 35.2527Z" fill="#4D4D4D"/>
<path d="M120.042 20.2208C121.072 20.2208 122.026 20.3966 122.905 20.7483C123.809 21.0748 124.525 21.5394 125.053 22.1422C125.605 22.7199 125.881 23.3603 125.881 24.0636C125.881 24.591 125.731 25.0431 125.429 25.4198C125.153 25.7714 124.701 25.9472 124.073 25.9472C123.194 25.9472 122.755 25.5705 122.755 24.817C122.755 24.6161 122.805 24.3649 122.905 24.0636C123.031 23.7622 123.094 23.4733 123.094 23.1971C123.094 22.5692 122.805 22.092 122.227 21.7654C121.649 21.4138 120.959 21.238 120.155 21.238C118.849 21.238 117.857 21.7654 117.179 22.8203C116.501 23.8752 116.162 25.6835 116.162 28.2453C116.162 30.782 116.513 32.6783 117.216 33.9341C117.92 35.1648 118.987 35.7801 120.419 35.7801C121.675 35.7801 122.792 35.4285 123.772 34.7252C124.776 34.022 125.429 33.0299 125.731 31.749L126.635 32.4271C126.183 33.7834 125.404 34.8508 124.299 35.6294C123.219 36.408 121.863 36.7973 120.23 36.7973C117.869 36.7973 116.011 36.0815 114.655 34.6499C113.324 33.1932 112.658 31.1965 112.658 28.6597C112.658 26.9519 112.959 25.47 113.562 24.2142C114.19 22.9333 115.057 21.9538 116.162 21.2757C117.292 20.5724 118.585 20.2208 120.042 20.2208Z" fill="#4D4D4D"/>
<path d="M100.271 20.2208C101.3 20.2208 102.255 20.3966 103.134 20.7483C104.038 21.0748 104.754 21.5394 105.281 22.1422C105.834 22.7199 106.11 23.3603 106.11 24.0636C106.11 24.591 105.959 25.0431 105.658 25.4198C105.382 25.7714 104.93 25.9472 104.302 25.9472C103.423 25.9472 102.983 25.5705 102.983 24.817C102.983 24.6161 103.033 24.3649 103.134 24.0636C103.259 23.7622 103.322 23.4733 103.322 23.1971C103.322 22.5692 103.033 22.092 102.456 21.7654C101.878 21.4138 101.187 21.238 100.384 21.238C99.0775 21.238 98.0855 21.7654 97.4073 22.8203C96.7292 23.8752 96.3901 25.6835 96.3901 28.2453C96.3901 30.782 96.7418 32.6783 97.445 33.9341C98.1482 35.1648 99.2157 35.7801 100.647 35.7801C101.903 35.7801 103.021 35.4285 104 34.7252C105.005 34.022 105.658 33.0299 105.959 31.749L106.863 32.4271C106.411 33.7834 105.633 34.8508 104.528 35.6294C103.448 36.408 102.091 36.7973 100.459 36.7973C98.098 36.7973 96.2394 36.0815 94.8832 34.6499C93.552 33.1932 92.8865 31.1965 92.8865 28.6597C92.8865 26.9519 93.1879 25.47 93.7906 24.2142C94.4185 22.9333 95.285 21.9538 96.3901 21.2757C97.5203 20.5724 98.8138 20.2208 100.271 20.2208Z" fill="#4D4D4D"/>
<path d="M82.7192 12.1957C83.322 12.1957 83.8117 12.3589 84.1885 12.6854C84.5903 13.0119 84.7913 13.4389 84.7913 13.9663C84.7913 14.544 84.6029 14.9961 84.2261 15.3226C83.8494 15.624 83.3471 15.7747 82.7192 15.7747C82.1164 15.7747 81.6267 15.624 81.2499 15.3226C80.8732 14.9961 80.6848 14.544 80.6848 13.9663C80.6848 13.4389 80.8732 13.0119 81.2499 12.6854C81.6267 12.3589 82.1164 12.1957 82.7192 12.1957ZM84.6029 34.7999C84.6029 35.2771 84.7661 35.5157 85.0926 35.5157L86.4489 35.4404V36.4199H79.4792V35.4404L80.8732 35.5157C81.1997 35.5157 81.3629 35.2771 81.3629 34.7999V22.2546C81.3629 21.8276 81.2122 21.5764 80.9109 21.5011L79.5169 21.5764V20.5969H84.6029V34.7999Z" fill="#4D4D4D"/>
<path d="M58.3 29.9392H59.6563C59.6563 31.3959 59.9577 32.7396 60.5605 33.9703C61.1884 35.201 62.2056 35.8163 63.6121 35.8163C64.8176 35.8163 65.6841 35.3517 66.2115 34.4224C66.739 33.4931 67.0027 31.9108 67.0027 29.6755V15.7739C67.0027 15.5478 66.9273 15.3595 66.7766 15.2088C66.6511 15.033 66.4878 14.9576 66.2869 14.9827L63.6874 15.0581V13.9279H72.6914V15.0581L71.2598 14.9827H71.1845C70.9836 14.9827 70.8203 15.0581 70.6947 15.2088C70.5691 15.3595 70.5064 15.5353 70.5064 15.7362V29.6755C70.5064 34.4224 68.4092 36.7958 64.2148 36.7958C63.4362 36.7958 62.419 36.6828 61.1633 36.4568C60.3595 36.3061 59.8447 36.2307 59.6186 36.2307H59.3172C58.7898 36.2307 58.4507 36.3061 58.3 36.4568V29.9392Z" fill="#4D4D4D"/>
<path d="M45 10.4333V45H0V29.2137L0.378723 28.9942L21.5968 16.7446L21.9686 16.5294L36.5398 24.5793L36.1724 25.2431L35.8042 25.9061L21.9843 18.2716L1.51838 30.0874V43.4843H43.4816V11.4107L21.9843 1.67254L1.08556 11.6067L0.432827 10.2373L21.9694 0L45 10.4333Z" fill="#4D4D4D"/>
<path d="M32.7811 29.1512V5.72668H34.3636V29.1512C34.3636 30.7054 34.1742 32.3632 33.311 33.753C32.4219 35.1844 30.8889 36.2223 28.457 36.6566C22.8266 37.6618 19.1991 33.6844 18 32.3485L19.2017 31.363C20.4305 32.7319 23.5041 36.0014 28.1671 35.1687C30.237 34.799 31.3348 33.9712 31.9503 32.9803C32.5916 31.9478 32.7811 30.6265 32.7811 29.1512Z" fill="#4D4D4D"/>
<path d="M9.81812 35.1383C9.81831 28.8476 15.4897 25.3633 19.9064 25.3633C23.4593 25.3634 25.6869 27.1628 26.4112 28.191L25.1639 29.0586C24.7115 28.4165 22.9402 26.876 19.9064 26.8758C16.0886 26.8758 11.3402 29.905 11.34 35.1383C11.34 37.7455 12.6683 39.8516 14.3208 41.318C15.1458 42.05 16.0377 42.608 16.8503 42.9757C17.6794 43.3509 18.3645 43.5001 18.7868 43.4851C21.1568 43.401 26.4906 43.4843 28.0564 43.4843C28.2983 43.4843 28.7279 43.3865 29.2713 43.1313C29.7995 42.8834 30.3808 42.5122 30.9183 42.03C31.997 41.0622 32.8407 39.7073 32.8408 38.0617C32.8408 34.5165 30.6323 32.221 28.0564 32.221C27.0856 32.2211 25.8513 32.5872 24.7843 33.2042C23.6987 33.832 22.9517 34.621 22.7376 35.3504L21.2761 34.9271C21.6502 33.6523 22.7941 32.6042 24.019 31.8959C25.2626 31.1769 26.7587 30.7077 28.0564 30.7076C31.6986 30.7076 34.3636 33.9239 34.3636 38.0617C34.3635 40.2573 33.233 41.9923 31.9382 43.1539C31.289 43.7362 30.5832 44.1891 29.9221 44.4996C29.2759 44.8029 28.6128 44.9977 28.0564 44.9977C26.429 44.9977 21.1767 44.9148 18.8411 44.9977C18.0871 45.0244 17.1542 44.776 16.2188 44.3527C15.267 43.9219 14.2467 43.2801 13.3071 42.4463C11.4305 40.7811 9.81812 38.2934 9.81812 35.1383Z" fill="#4D4D4D"/>
</svg>
