<svg width="29" height="29" viewBox="0 0 29 29" fill="none" xmlns="http://www.w3.org/2000/svg">
<path d="M0 25.3887V8.27734C0.000114889 7.31985 0.380606 6.40171 1.05762 5.72461C1.73483 5.04739 2.6536 4.66699 3.61133 4.66699H12.9443C13.2205 4.66699 13.4443 4.89085 13.4443 5.16699C13.4442 5.44298 13.2204 5.66699 12.9443 5.66699H3.61133C2.91882 5.66699 2.25433 5.94196 1.76465 6.43164C1.27517 6.9212 1.00011 7.58507 1 8.27734V25.3887C1 26.0812 1.27497 26.7457 1.76465 27.2354C2.25433 27.725 2.91882 28 3.61133 28H20.7227C21.4149 27.9999 22.0788 27.7248 22.5684 27.2354C23.058 26.7457 23.333 26.0812 23.333 25.3887V16.0557C23.333 15.7796 23.557 15.5558 23.833 15.5557C24.1091 15.5557 24.333 15.7795 24.333 16.0557V25.3887C24.333 26.3464 23.9526 27.2652 23.2754 27.9424C22.5983 28.6194 21.6801 28.9999 20.7227 29H3.61133C2.6536 29 1.73483 28.6196 1.05762 27.9424C0.380403 27.2652 0 26.3464 0 25.3887ZM29 9.83301C29 10.1091 28.7761 10.333 28.5 10.333C28.2239 10.333 28 10.1091 28 9.83301V1.70703L11.7422 17.9648C11.5469 18.1599 11.2303 18.16 11.0352 17.9648C10.84 17.7697 10.8401 17.4531 11.0352 17.2578L27.293 1H19.167C18.8908 1 18.667 0.776142 18.667 0.5C18.667 0.223858 18.8908 0 19.167 0H28.5C28.7761 0 29 0.223858 29 0.5V9.83301Z" fill="white"/>
</svg>
