<?xml version="1.0" encoding="UTF-8"?>
<svg id="_レイヤー_1" data-name="レイヤー 1" xmlns="http://www.w3.org/2000/svg" viewBox="0 0 227.46 69.7">
  <defs>
    <style>
      .cls-1 {
        fill: #4D4D4D;
      }
    </style>
  </defs>
  <path class="cls-1" d="M227.46,55.13v1.51h-8.28c.04-.27.08-.62.12-1.05.07-.47.11-.84.11-1.11l.12-2.27c-.86,1.67-1.97,2.87-3.33,3.61-1.32.74-2.91,1.11-4.77,1.11-2.46,0-4.31-.54-5.59-1.63-1.25-1.13-1.87-2.78-1.87-4.95,0-2.99,1.25-5.19,3.73-6.58,2.53-1.44,6.47-2.16,11.83-2.16v-3.38c0-1.83-.43-3.13-1.29-3.9-.85-.78-2.23-1.17-4.13-1.17-2.96,0-4.43.82-4.43,2.45,0,.31.07.68.24,1.11.19.39.29.76.29,1.11,0,.66-.22,1.17-.65,1.51-.42.31-.97.47-1.62.47-.82,0-1.46-.25-1.93-.76-.43-.5-.64-1.17-.64-1.98,0-1.63.86-2.95,2.57-3.96,1.71-1.01,4-1.51,6.87-1.51,6.49,0,9.74,2.74,9.74,8.22v14.33c0,.74.25,1.11.75,1.11l2.16-.12ZM213.18,54.84c1.71,0,3.16-.7,4.37-2.1,1.21-1.44,1.86-3.28,1.98-5.54v-4.02c-3.66,0-6.28.54-7.87,1.63-1.6,1.05-2.4,2.74-2.4,5.07,0,1.63.33,2.87,1,3.73.69.82,1.66,1.22,2.91,1.22Z"/>
  <path class="cls-1" d="M185.34,31.59c1.6,0,3.07.27,4.43.82,1.4.5,2.51,1.22,3.33,2.16.85.89,1.28,1.88,1.28,2.97,0,.82-.24,1.51-.69,2.1-.43.54-1.14.82-2.11.82-1.36,0-2.04-.58-2.04-1.75,0-.31.08-.7.24-1.17.19-.47.29-.91.29-1.34,0-.97-.44-1.71-1.33-2.21-.9-.54-1.97-.82-3.2-.82-2.03,0-3.57.82-4.61,2.45-1.05,1.63-1.58,4.43-1.58,8.39s.55,6.86,1.64,8.8c1.08,1.9,2.73,2.86,4.95,2.86,1.94,0,3.68-.54,5.19-1.63,1.55-1.09,2.57-2.62,3.02-4.6l1.4,1.05c-.69,2.1-1.9,3.75-3.61,4.95-1.68,1.2-3.77,1.81-6.3,1.81-3.65,0-6.52-1.11-8.63-3.32-2.05-2.25-3.08-5.34-3.08-9.26,0-2.64.46-4.93,1.4-6.88.97-1.98,2.3-3.5,4.01-4.54,1.75-1.09,3.76-1.63,6.01-1.63Z"/>
  <path class="cls-1" d="M154.76,31.59c1.6,0,3.07.27,4.43.82,1.4.5,2.51,1.22,3.32,2.16.86.89,1.29,1.88,1.29,2.97,0,.82-.24,1.51-.71,2.1-.42.54-1.12.82-2.09.82-1.36,0-2.04-.58-2.04-1.75,0-.31.08-.7.24-1.17.19-.47.29-.91.29-1.34,0-.97-.44-1.71-1.35-2.21-.89-.54-1.96-.82-3.2-.82-2.01,0-3.55.82-4.59,2.45-1.05,1.63-1.58,4.43-1.58,8.39s.54,6.86,1.64,8.8c1.08,1.9,2.73,2.86,4.95,2.86,1.94,0,3.66-.54,5.19-1.63,1.55-1.09,2.55-2.62,3.02-4.6l1.4,1.05c-.71,2.1-1.9,3.75-3.62,4.95-1.66,1.2-3.76,1.81-6.28,1.81-3.65,0-6.53-1.11-8.63-3.32-2.05-2.25-3.08-5.34-3.08-9.26,0-2.64.46-4.93,1.39-6.88.97-1.98,2.32-3.5,4.02-4.54,1.75-1.09,3.75-1.63,6.01-1.63Z"/>
  <path class="cls-1" d="M127.61,19.17c.93,0,1.69.25,2.28.76.62.51.93,1.17.93,1.98,0,.89-.29,1.59-.87,2.1-.58.47-1.36.7-2.33.7s-1.69-.23-2.28-.7c-.58-.5-.87-1.2-.87-2.1,0-.82.29-1.48.87-1.98.58-.5,1.35-.76,2.28-.76ZM130.52,54.14c0,.74.25,1.11.76,1.11l2.09-.12v1.51h-10.78v-1.51l2.15.12c.51,0,.76-.37.76-1.11v-19.4c0-.66-.24-1.05-.69-1.17l-2.16.12v-1.51h7.87v21.97Z"/>
  <path class="cls-1" d="M89.85,46.62h2.09c0,2.25.47,4.33,1.4,6.23.97,1.9,2.54,2.86,4.72,2.86,1.86,0,3.2-.72,4.02-2.16.82-1.44,1.22-3.88,1.22-7.34v-21.5c0-.35-.11-.64-.35-.87-.19-.27-.44-.39-.76-.35l-4.02.12v-1.75h13.93v1.75l-2.21-.12h-.12c-.31,0-.55.12-.75.35s-.29.5-.29.82v21.56c0,7.34-3.25,11.01-9.74,11.01-1.21,0-2.77-.17-4.72-.52-1.25-.23-2.04-.35-2.39-.35h-.47c-.82,0-1.33.12-1.57.35v-10.08Z"/>
  <path class="cls-1" d="M34.41.2l34.57,15.69.61.28v53.53H0v-24.33l33.46-19.35.51-.3,22.54,12.48-.5.91-.5.91-21.53-11.91L2.08,46.56v21.05h65.43V17.5L33.99,2.29,1.48,17.77l-.89-1.88L33.53.21l.44-.21.43.2Z"/>
  <path class="cls-1" d="M50,45.57V9.06h2.08v36.52c0,2.42-.29,4.97-1.55,7.1-1.3,2.19-3.55,3.79-7.14,4.46-8.31,1.55-13.67-4.58-15.46-6.67l1.58-1.36c1.83,2.13,6.47,7.29,13.5,5.98,3.11-.58,4.79-1.89,5.73-3.48.97-1.64,1.26-3.73,1.26-6.04Z"/>
  <path class="cls-1" d="M15.46,54.47c0-9.71,8.7-15.1,15.5-15.1,5.45,0,8.87,2.78,9.96,4.35l-1.71,1.19c-.72-1.04-3.51-3.46-8.25-3.46-5.98,0-13.42,4.76-13.42,13.02,0,4.11,2.08,7.43,4.66,9.73,1.29,1.15,2.69,2.03,3.95,2.61,1.3.59,2.39.83,3.07.81,3.66-.13,11.92,0,14.36,0,.4,0,1.08-.16,1.94-.56.82-.39,1.73-.98,2.58-1.74,1.69-1.53,3.02-3.67,3.02-6.29,0-5.58-3.47-9.24-7.55-9.24-1.54,0-3.47.58-5.15,1.55-1.69.99-2.89,2.24-3.23,3.43l-2-.58c.57-1.94,2.3-3.55,4.19-4.64,1.91-1.11,4.2-1.83,6.19-1.83,5.54,0,9.63,4.93,9.63,11.32,0,3.37-1.72,6.04-3.72,7.83-.99.9-2.07,1.6-3.08,2.08-1,.47-2,.76-2.83.76-2.53,0-10.67-.13-14.29,0-1.14.04-2.55-.34-4-.99-1.46-.66-3.02-1.66-4.48-2.95-2.89-2.58-5.36-6.42-5.36-11.29Z"/>
</svg>
