<svg width="148" height="45" viewBox="0 0 148 45" fill="none" xmlns="http://www.w3.org/2000/svg">
<path d="M147.273 35.441V36.4205H141.923C141.948 36.2447 141.973 36.0187 141.999 35.7424C142.049 35.441 142.074 35.2024 142.074 35.0266L142.149 33.5573C141.597 34.6373 140.881 35.4159 140.002 35.8931C139.148 36.3703 138.118 36.6089 136.913 36.6089C135.33 36.6089 134.125 36.2573 133.296 35.5541C132.492 34.8257 132.09 33.7583 132.09 32.3518C132.09 30.4179 132.894 28.9988 134.501 28.0946C136.134 27.1654 138.683 26.7007 142.149 26.7007V24.5156C142.149 23.3352 141.873 22.4938 141.32 21.9915C140.768 21.4892 139.876 21.238 138.646 21.238C136.737 21.238 135.782 21.7654 135.782 22.8203C135.782 23.0212 135.833 23.2598 135.933 23.5361C136.059 23.7873 136.121 24.0259 136.121 24.2519C136.121 24.6789 135.983 25.0054 135.707 25.2314C135.431 25.4324 135.079 25.5328 134.652 25.5328C134.125 25.5328 133.71 25.3696 133.409 25.0431C133.133 24.7166 132.994 24.2896 132.994 23.7622C132.994 22.7073 133.547 21.8534 134.652 21.2003C135.757 20.5473 137.239 20.2208 139.098 20.2208C143.292 20.2208 145.389 21.9915 145.389 25.5328V34.8006C145.389 35.2778 145.552 35.5164 145.879 35.5164L147.273 35.441ZM138.043 35.2527C139.148 35.2527 140.09 34.8006 140.868 33.8964C141.647 32.9671 142.074 31.7741 142.149 30.3174V27.7179C139.788 27.7179 138.093 28.0695 137.063 28.7728C136.034 29.4509 135.519 30.5434 135.519 32.0504C135.519 33.1053 135.732 33.909 136.159 34.4615C136.611 34.9889 137.239 35.2527 138.043 35.2527Z" fill="white"/>
<path d="M120.042 20.2208C121.072 20.2208 122.026 20.3966 122.905 20.7483C123.809 21.0748 124.525 21.5394 125.053 22.1422C125.605 22.7199 125.881 23.3603 125.881 24.0636C125.881 24.591 125.731 25.0431 125.429 25.4198C125.153 25.7714 124.701 25.9472 124.073 25.9472C123.194 25.9472 122.755 25.5705 122.755 24.817C122.755 24.6161 122.805 24.3649 122.905 24.0636C123.031 23.7622 123.094 23.4733 123.094 23.1971C123.094 22.5692 122.805 22.092 122.227 21.7654C121.649 21.4138 120.959 21.238 120.155 21.238C118.849 21.238 117.857 21.7654 117.179 22.8203C116.501 23.8752 116.162 25.6835 116.162 28.2453C116.162 30.782 116.513 32.6783 117.216 33.9341C117.92 35.1648 118.987 35.7801 120.419 35.7801C121.675 35.7801 122.792 35.4285 123.772 34.7252C124.776 34.022 125.429 33.0299 125.731 31.749L126.635 32.4271C126.183 33.7834 125.404 34.8508 124.299 35.6294C123.219 36.408 121.863 36.7973 120.23 36.7973C117.869 36.7973 116.011 36.0815 114.655 34.6499C113.324 33.1932 112.658 31.1965 112.658 28.6597C112.658 26.9519 112.959 25.47 113.562 24.2142C114.19 22.9333 115.057 21.9538 116.162 21.2757C117.292 20.5724 118.585 20.2208 120.042 20.2208Z" fill="white"/>
<path d="M100.271 20.2208C101.3 20.2208 102.255 20.3966 103.134 20.7483C104.038 21.0748 104.754 21.5394 105.281 22.1422C105.834 22.7199 106.11 23.3603 106.11 24.0636C106.11 24.591 105.959 25.0431 105.658 25.4198C105.382 25.7714 104.93 25.9472 104.302 25.9472C103.423 25.9472 102.983 25.5705 102.983 24.817C102.983 24.6161 103.033 24.3649 103.134 24.0636C103.259 23.7622 103.322 23.4733 103.322 23.1971C103.322 22.5692 103.033 22.092 102.456 21.7654C101.878 21.4138 101.187 21.238 100.384 21.238C99.0775 21.238 98.0855 21.7654 97.4073 22.8203C96.7292 23.8752 96.3901 25.6835 96.3901 28.2453C96.3901 30.782 96.7418 32.6783 97.445 33.9341C98.1482 35.1648 99.2157 35.7801 100.647 35.7801C101.903 35.7801 103.021 35.4285 104 34.7252C105.005 34.022 105.658 33.0299 105.959 31.749L106.863 32.4271C106.411 33.7834 105.633 34.8508 104.528 35.6294C103.448 36.408 102.091 36.7973 100.459 36.7973C98.098 36.7973 96.2394 36.0815 94.8832 34.6499C93.552 33.1932 92.8865 31.1965 92.8865 28.6597C92.8865 26.9519 93.1879 25.47 93.7906 24.2142C94.4185 22.9333 95.285 21.9538 96.3901 21.2757C97.5203 20.5724 98.8138 20.2208 100.271 20.2208Z" fill="white"/>
<path d="M82.7192 12.1964C83.322 12.1964 83.8117 12.3597 84.1885 12.6862C84.5903 13.0127 84.7913 13.4396 84.7913 13.9671C84.7913 14.5447 84.6029 14.9968 84.2261 15.3233C83.8494 15.6247 83.3471 15.7754 82.7192 15.7754C82.1164 15.7754 81.6267 15.6247 81.2499 15.3233C80.8732 14.9968 80.6848 14.5447 80.6848 13.9671C80.6848 13.4396 80.8732 13.0127 81.2499 12.6862C81.6267 12.3597 82.1164 12.1964 82.7192 12.1964ZM84.6029 34.8007C84.6029 35.2779 84.7661 35.5165 85.0926 35.5165L86.4489 35.4411V36.4206H79.4792V35.4411L80.8732 35.5165C81.1997 35.5165 81.3629 35.2779 81.3629 34.8007V22.2553C81.3629 21.8283 81.2122 21.5772 80.9109 21.5018L79.5169 21.5772V20.5977H84.6029V34.8007Z" fill="white"/>
<path d="M58.3 29.9404H59.6563C59.6563 31.3971 59.9577 32.7408 60.5605 33.9715C61.1884 35.2021 62.2056 35.8175 63.6121 35.8175C64.8176 35.8175 65.6841 35.3528 66.2115 34.4235C66.739 33.4943 67.0027 31.912 67.0027 29.6767V15.775C67.0027 15.549 66.9273 15.3606 66.7766 15.2099C66.6511 15.0341 66.4878 14.9588 66.2869 14.9839L63.6874 15.0592V13.929H72.6914V15.0592L71.2598 14.9839H71.1845C70.9836 14.9839 70.8203 15.0592 70.6947 15.2099C70.5691 15.3606 70.5064 15.5364 70.5064 15.7374V29.6767C70.5064 34.4235 68.4092 36.797 64.2148 36.797C63.4362 36.797 62.419 36.684 61.1633 36.4579C60.3595 36.3072 59.8447 36.2319 59.6186 36.2319H59.3172C58.7898 36.2319 58.4507 36.3072 58.3 36.4579V29.9404Z" fill="white"/>
<path d="M45 10.4333V45H0V29.2137L0.378723 28.9942L21.5968 16.7446L21.9686 16.5294L36.5398 24.5793L36.1724 25.2431L35.8042 25.9061L21.9843 18.2716L1.51838 30.0874V43.4843H43.4816V11.4107L21.9843 1.67254L1.08556 11.6067L0.432827 10.2373L21.9694 0L45 10.4333Z" fill="white"/>
<path d="M32.7811 29.1519V5.72742H34.3636V29.1519C34.3636 30.7061 34.1742 32.3639 33.311 33.7537C32.4219 35.1852 30.8889 36.223 28.457 36.6573C22.8266 37.6626 19.1991 33.6851 18 32.3493L19.2017 31.3637C20.4305 32.7327 23.5041 36.0021 28.1671 35.1694C30.237 34.7997 31.3348 33.9719 31.9503 32.9811C32.5916 31.9486 32.7811 30.6273 32.7811 29.1519Z" fill="white"/>
<path d="M9.81812 35.1387C9.81831 28.848 15.4897 25.3636 19.9064 25.3636C23.4593 25.3638 25.6869 27.1632 26.4112 28.1914L25.1639 29.059C24.7115 28.4169 22.9402 26.8763 19.9064 26.8762C16.0886 26.8762 11.3402 29.9054 11.34 35.1387C11.34 37.7458 12.6683 39.852 14.3208 41.3184C15.1458 42.0504 16.0377 42.6083 16.8503 42.9761C17.6794 43.3513 18.3645 43.5005 18.7868 43.4855C21.1568 43.4014 26.4906 43.4846 28.0564 43.4846C28.2983 43.4846 28.7279 43.3868 29.2713 43.1317C29.7995 42.8837 30.3808 42.5126 30.9183 42.0303C31.997 41.0625 32.8407 39.7076 32.8408 38.0621C32.8408 34.5169 30.6323 32.2214 28.0564 32.2214C27.0856 32.2214 25.8513 32.5876 24.7843 33.2045C23.6987 33.8324 22.9517 34.6214 22.7376 35.3508L21.2761 34.9275C21.6502 33.6527 22.7941 32.6046 24.019 31.8963C25.2626 31.1772 26.7587 30.708 28.0564 30.708C31.6986 30.708 34.3636 33.9243 34.3636 38.0621C34.3635 40.2576 33.233 41.9927 31.9382 43.1543C31.289 43.7366 30.5832 44.1895 29.9221 44.5C29.2759 44.8033 28.6128 44.998 28.0564 44.998C26.429 44.998 21.1767 44.9152 18.8411 44.998C18.0871 45.0248 17.1542 44.7764 16.2188 44.353C15.267 43.9223 14.2467 43.2804 13.3071 42.4467C11.4305 40.7815 9.81812 38.2937 9.81812 35.1387Z" fill="white"/>
</svg>
